<svg xmlns="http://www.w3.org/2000/svg" xmlns:xlink="http://www.w3.org/1999/xlink" width="324" zoomAndPan="magnify" viewBox="0 0 242.87999 242.999999" height="324" preserveAspectRatio="xMidYMid meet" version="1.0"><defs><filter x="0%" y="0%" width="100%" height="100%" id="9f2c8ec9ea"><feColorMatrix values="0 0 0 0 1 0 0 0 0 1 0 0 0 0 1 0 0 0 1 0" color-interpolation-filters="sRGB"/></filter><clipPath id="3e47b6b7ad"><path d="M 0 0.0585938 L 242.761719 0.0585938 L 242.761719 242.9375 L 0 242.9375 Z M 0 0.0585938 " clip-rule="nonzero"/></clipPath><mask id="28cff4598d"><g filter="url(#9f2c8ec9ea)"><rect x="-24.287999" width="291.455988" fill="#000000" y="-24.3" height="291.599999" fill-opacity="0.75"/></g></mask><clipPath id="e26997f6dc"><path d="M 0 0.0585938 L 242.761719 0.0585938 L 242.761719 242.9375 L 0 242.9375 Z M 0 0.0585938 " clip-rule="nonzero"/></clipPath><clipPath id="a61d16d6b2"><path d="M 121.441406 0.0585938 C 54.371094 0.0585938 0 54.429688 0 121.5 C 0 188.570312 54.371094 242.941406 121.441406 242.941406 C 188.507812 242.941406 242.878906 188.570312 242.878906 121.5 C 242.878906 54.429688 188.507812 0.0585938 121.441406 0.0585938 Z M 121.441406 0.0585938 " clip-rule="nonzero"/></clipPath><clipPath id="57f1d52264"><rect x="0" width="243" y="0" height="243"/></clipPath><clipPath id="1418ab17b1"><path d="M 92 103 L 151 103 L 151 156 L 92 156 Z M 92 103 " clip-rule="nonzero"/></clipPath><clipPath id="60f4b1cb7c"><path d="M 94.070312 101.535156 L 152.722656 105.753906 L 148.972656 157.886719 L 90.324219 153.667969 Z M 94.070312 101.535156 " clip-rule="nonzero"/></clipPath><clipPath id="202ff62295"><path d="M 123.3125 103.636719 C 107.164062 102.476562 93.234375 113.203125 92.195312 127.601562 C 91.160156 141.996094 103.414062 154.609375 119.5625 155.773438 C 135.710938 156.933594 149.644531 146.203125 150.679688 131.808594 C 151.714844 117.410156 139.460938 104.796875 123.3125 103.636719 Z M 123.3125 103.636719 " clip-rule="nonzero"/></clipPath><clipPath id="e0299a447a"><path d="M 115 37.8125 L 128 37.8125 L 128 68 L 115 68 Z M 115 37.8125 " clip-rule="nonzero"/></clipPath><clipPath id="b752bdc78a"><path d="M 33.492188 99 L 64 99 L 64 111 L 33.492188 111 Z M 33.492188 99 " clip-rule="nonzero"/></clipPath><clipPath id="9959ce186c"><path d="M 48 148 L 195 148 L 195 191.804688 L 48 191.804688 Z M 48 148 " clip-rule="nonzero"/></clipPath></defs><g clip-path="url(#3e47b6b7ad)"><g mask="url(#28cff4598d)"><g transform="matrix(1, 0, 0, 1, 0, -0.000000000000022163)"><g clip-path="url(#57f1d52264)"><g clip-path="url(#e26997f6dc)"><g clip-path="url(#a61d16d6b2)"><path fill="#ffffff" d="M 0 0.0585938 L 242.878906 0.0585938 L 242.878906 242.941406 L 0 242.941406 Z M 0 0.0585938 " fill-opacity="1" fill-rule="nonzero"/></g></g></g></g></g></g><g clip-path="url(#1418ab17b1)"><g clip-path="url(#60f4b1cb7c)"><g clip-path="url(#202ff62295)"><path fill="#ffd84e" d="M 94.070312 101.535156 L 152.519531 105.738281 L 148.769531 157.871094 L 90.324219 153.667969 Z M 94.070312 101.535156 " fill-opacity="1" fill-rule="nonzero"/><path fill="#ffd84e" d="M 94.070312 101.535156 L 152.519531 105.738281 L 148.769531 157.871094 L 90.324219 153.667969 Z M 94.070312 101.535156 " fill-opacity="1" fill-rule="nonzero"/></g></g></g><g clip-path="url(#e0299a447a)"><path fill="#ff6854" d="M 127.050781 43.425781 C 127.050781 40.324219 124.535156 37.8125 121.4375 37.8125 C 118.335938 37.8125 115.824219 40.324219 115.824219 43.425781 L 115.824219 62.136719 C 115.824219 65.234375 118.335938 67.75 121.4375 67.75 C 124.535156 67.75 127.050781 65.234375 127.050781 62.136719 Z M 127.050781 43.425781 " fill-opacity="1" fill-rule="nonzero"/></g><path fill="#ff6854" d="M 170.085938 187.503906 L 170.085938 131.371094 C 170.085938 104.5 148.304688 82.71875 121.4375 82.71875 C 94.566406 82.71875 72.785156 104.5 72.785156 131.371094 L 72.785156 187.503906 Z M 158.859375 131.371094 L 158.859375 176.277344 L 84.011719 176.277344 L 84.011719 131.371094 C 84.011719 110.703125 100.769531 93.945312 121.4375 93.945312 C 142.105469 93.945312 158.859375 110.703125 158.859375 131.371094 Z M 158.859375 131.371094 " fill-opacity="1" fill-rule="evenodd"/><path fill="#ff6854" d="M 179.441406 103.300781 C 179.441406 100.203125 181.957031 97.6875 185.058594 97.6875 L 203.769531 97.6875 C 206.867188 97.6875 209.382812 100.203125 209.382812 103.300781 C 209.382812 106.402344 206.867188 108.914062 203.769531 108.914062 L 185.058594 108.914062 C 181.957031 108.914062 179.441406 106.402344 179.441406 103.300781 Z M 179.441406 103.300781 " fill-opacity="1" fill-rule="nonzero"/><g clip-path="url(#b752bdc78a)"><path fill="#ff6854" d="M 39.105469 99.558594 C 36.003906 99.558594 33.492188 102.074219 33.492188 105.171875 C 33.492188 108.273438 36.003906 110.785156 39.105469 110.785156 L 57.816406 110.785156 C 60.917969 110.785156 63.429688 108.273438 63.429688 105.171875 C 63.429688 102.074219 60.917969 99.558594 57.816406 99.558594 Z M 39.105469 99.558594 " fill-opacity="1" fill-rule="nonzero"/></g><path fill="#ff6854" d="M 62.199219 57.164062 C 64.394531 54.972656 67.945312 54.972656 70.140625 57.164062 L 83.371094 70.394531 C 85.5625 72.589844 85.5625 76.140625 83.371094 78.335938 C 81.179688 80.527344 77.625 80.527344 75.433594 78.335938 L 62.199219 65.101562 C 60.007812 62.910156 60.007812 59.355469 62.199219 57.164062 Z M 62.199219 57.164062 " fill-opacity="1" fill-rule="nonzero"/><path fill="#ff6854" d="M 170.863281 57.164062 C 173.054688 54.972656 176.609375 54.972656 178.800781 57.164062 C 180.992188 59.355469 180.992188 62.910156 178.800781 65.101562 L 165.570312 78.335938 C 163.378906 80.527344 159.824219 80.527344 157.632812 78.335938 C 155.4375 76.140625 155.4375 72.589844 157.632812 70.394531 Z M 170.863281 57.164062 " fill-opacity="1" fill-rule="nonzero"/><g clip-path="url(#9959ce186c)"><path fill="#004aad" d="M 170.085938 148.210938 L 170.085938 176.863281 C 183.957031 179.625 194.414062 191.863281 194.414062 206.546875 C 194.414062 210.5 191.210938 213.703125 187.257812 213.703125 L 55.613281 213.703125 C 51.664062 213.703125 48.460938 210.5 48.460938 206.546875 C 48.460938 191.863281 58.914062 179.625 72.785156 176.863281 L 72.785156 148.210938 Z M 84.011719 176.277344 L 158.859375 176.277344 L 158.859375 159.4375 L 84.011719 159.4375 Z M 78.730469 187.503906 C 69.609375 187.503906 61.988281 193.914062 60.125 202.476562 L 182.75 202.476562 C 180.882812 193.914062 173.261719 187.503906 164.144531 187.503906 Z M 78.730469 187.503906 " fill-opacity="1" fill-rule="evenodd"/></g></svg>