<svg xmlns="http://www.w3.org/2000/svg" xmlns:xlink="http://www.w3.org/1999/xlink" width="214" zoomAndPan="magnify" viewBox="0 0 160.5 111.749997" height="149" preserveAspectRatio="xMidYMid meet" version="1.0"><defs><clipPath id="077356452a"><path d="M 3.007812 0.0507812 L 156.28125 0.0507812 L 156.28125 101.730469 L 3.007812 101.730469 Z M 3.007812 0.0507812 " clip-rule="nonzero"/></clipPath><clipPath id="4fb0d398f2"><path d="M 1 104.191406 L 158 104.191406 L 158 110.921875 L 1 110.921875 Z M 1 104.191406 " clip-rule="nonzero"/></clipPath><clipPath id="c97ef7da58"><path d="M 58.449219 105.691406 L 100 105.691406 L 100 109.429688 L 58.449219 109.429688 Z M 58.449219 105.691406 " clip-rule="nonzero"/></clipPath></defs><g clip-path="url(#077356452a)"><path fill="#242d5d" d="M 96.164062 102.082031 L 96.164062 104.953125 L 61.703125 104.953125 L 61.703125 102.082031 L -12.964844 102.082031 L -12.964844 103.230469 C -12.964844 104.953125 -12.390625 107.25 -10.667969 108.972656 C -8.945312 110.695312 -7.21875 111.269531 -4.921875 111.269531 L 163.363281 111.269531 C 165.089844 111.269531 167.386719 110.695312 169.109375 108.972656 C 170.832031 107.25 171.40625 105.527344 171.40625 103.230469 L 171.40625 102.082031 Z M 12.308594 107.25 L 4.265625 107.25 L 4.265625 106.101562 L 12.308594 106.101562 Z M 8.863281 99.207031 L 149.007812 99.207031 C 150.15625 99.207031 151.304688 98.632812 152.453125 97.484375 C 153.601562 96.335938 154.175781 95.1875 154.175781 94.039062 L 154.175781 5.011719 C 154.175781 3.863281 153.601562 2.714844 152.453125 1.566406 C 151.304688 0.417969 150.15625 -0.15625 149.007812 -0.15625 L 8.863281 -0.15625 C 7.714844 -0.15625 6.5625 0.417969 5.414062 1.566406 C 4.265625 2.140625 4.265625 3.289062 4.265625 5.011719 L 4.265625 94.613281 C 4.265625 95.761719 4.839844 96.910156 5.988281 98.058594 C 6.5625 98.632812 7.714844 99.207031 8.863281 99.207031 Z M 78.933594 2.140625 C 80.082031 2.140625 80.65625 2.714844 80.65625 3.863281 C 80.65625 5.011719 80.082031 5.585938 78.933594 5.585938 C 77.785156 5.585938 77.210938 5.011719 77.210938 3.863281 C 77.210938 2.714844 77.785156 2.140625 78.933594 2.140625 Z M 11.734375 7.886719 L 146.132812 7.886719 L 146.132812 91.742188 L 11.734375 91.742188 Z M 11.734375 7.886719 " fill-opacity="1" fill-rule="nonzero"/></g><g clip-path="url(#4fb0d398f2)"><path fill="#242d5d" d="M 94.089844 103.125 L 94.089844 105.5625 L 64.816406 105.5625 L 64.816406 103.125 L 1.402344 103.125 L 1.402344 104.097656 C 1.402344 105.5625 1.886719 107.515625 3.351562 108.976562 C 4.816406 110.441406 6.277344 110.929688 8.230469 110.929688 L 151.164062 110.929688 C 152.628906 110.929688 154.578125 110.441406 156.042969 108.976562 C 157.503906 107.515625 157.992188 106.050781 157.992188 104.097656 L 157.992188 103.125 Z M 22.863281 107.515625 L 16.035156 107.515625 L 16.035156 106.539062 L 22.863281 106.539062 Z M 19.9375 100.683594 L 138.96875 100.683594 C 139.945312 100.683594 140.917969 100.195312 141.894531 99.222656 C 142.871094 98.246094 143.359375 97.269531 143.359375 96.292969 L 143.359375 20.679688 C 143.359375 19.703125 142.871094 18.730469 141.894531 17.753906 C 140.917969 16.777344 139.945312 16.289062 138.96875 16.289062 L 19.9375 16.289062 C 18.960938 16.289062 17.988281 16.777344 17.011719 17.753906 C 16.035156 18.242188 16.035156 19.21875 16.035156 20.679688 L 16.035156 96.78125 C 16.035156 97.757812 16.523438 98.734375 17.5 99.707031 C 17.988281 100.195312 18.960938 100.683594 19.9375 100.683594 Z M 79.453125 18.242188 C 80.429688 18.242188 80.917969 18.730469 80.917969 19.703125 C 80.917969 20.679688 80.429688 21.167969 79.453125 21.167969 C 78.476562 21.167969 77.988281 20.679688 77.988281 19.703125 C 77.988281 18.730469 78.476562 18.242188 79.453125 18.242188 Z M 22.378906 23.121094 L 136.527344 23.121094 L 136.527344 94.34375 L 22.378906 94.34375 Z M 22.378906 23.121094 " fill-opacity="1" fill-rule="nonzero"/></g><g clip-path="url(#c97ef7da58)"><path fill="#242d5d" d="M 56.761719 104.148438 L 56.761719 105.800781 L 36.964844 105.800781 L 36.964844 104.148438 L -5.9375 104.148438 L -5.9375 104.808594 C -5.9375 105.800781 -5.605469 107.121094 -4.617188 108.109375 C -3.625 109.097656 -2.636719 109.429688 -1.316406 109.429688 L 95.375 109.429688 C 96.363281 109.429688 97.683594 109.097656 98.671875 108.109375 C 99.664062 107.121094 99.992188 106.128906 99.992188 104.808594 L 99.992188 104.148438 Z M 8.585938 107.121094 L 3.964844 107.121094 L 3.964844 106.460938 L 8.585938 106.460938 Z M 6.605469 102.5 L 87.125 102.5 C 87.78125 102.5 88.441406 102.167969 89.101562 101.507812 C 89.761719 100.847656 90.09375 100.191406 90.09375 99.53125 L 90.09375 48.378906 C 90.09375 47.71875 89.761719 47.058594 89.101562 46.398438 C 88.441406 45.738281 87.78125 45.410156 87.125 45.410156 L 6.605469 45.410156 C 5.945312 45.410156 5.285156 45.738281 4.625 46.398438 C 3.964844 46.730469 3.964844 47.390625 3.964844 48.378906 L 3.964844 99.859375 C 3.964844 100.519531 4.292969 101.179688 4.953125 101.839844 C 5.285156 102.167969 5.945312 102.5 6.605469 102.5 Z M 46.863281 46.730469 C 47.523438 46.730469 47.855469 47.058594 47.855469 47.71875 C 47.855469 48.378906 47.523438 48.710938 46.863281 48.710938 C 46.203125 48.710938 45.875 48.378906 45.875 47.71875 C 45.875 47.058594 46.203125 46.730469 46.863281 46.730469 Z M 8.253906 50.03125 L 85.472656 50.03125 L 85.472656 98.210938 L 8.253906 98.210938 Z M 8.253906 50.03125 " fill-opacity="1" fill-rule="nonzero"/></g></svg>