<svg xmlns="http://www.w3.org/2000/svg" xmlns:xlink="http://www.w3.org/1999/xlink" width="46" zoomAndPan="magnify" viewBox="0 0 34.5 30.75" height="41" preserveAspectRatio="xMidYMid meet" version="1.0"><defs><clipPath id="3e9e3fb2af"><path d="M 11 12 L 23 12 L 23 23 L 11 23 Z M 11 12 " clip-rule="nonzero"/></clipPath><clipPath id="050029366a"><path d="M 11.632812 12.332031 L 22.894531 13.144531 L 22.175781 23.15625 L 10.914062 22.34375 Z M 11.632812 12.332031 " clip-rule="nonzero"/></clipPath><clipPath id="231086c07a"><path d="M 17.25 12.738281 C 14.148438 12.515625 11.472656 14.574219 11.273438 17.339844 C 11.074219 20.101562 13.425781 22.523438 16.527344 22.75 C 19.628906 22.972656 22.304688 20.910156 22.503906 18.144531 C 22.703125 15.382812 20.347656 12.960938 17.25 12.738281 Z M 17.25 12.738281 " clip-rule="nonzero"/></clipPath><clipPath id="200776546a"><path d="M 15 0.0976562 L 18 0.0976562 L 18 6 L 15 6 Z M 15 0.0976562 " clip-rule="nonzero"/></clipPath><clipPath id="0835bc0551"><path d="M 2 21 L 31 21 L 31 29.667969 L 2 29.667969 Z M 2 21 " clip-rule="nonzero"/></clipPath></defs><g clip-path="url(#3e9e3fb2af)"><g clip-path="url(#050029366a)"><g clip-path="url(#231086c07a)"><path fill="#ffd84e" d="M 11.632812 12.332031 L 22.855469 13.140625 L 22.136719 23.152344 L 10.914062 22.34375 Z M 11.632812 12.332031 " fill-opacity="1" fill-rule="nonzero"/><path fill="#ffd84e" d="M 11.632812 12.332031 L 22.855469 13.140625 L 22.136719 23.152344 L 10.914062 22.34375 Z M 11.632812 12.332031 " fill-opacity="1" fill-rule="nonzero"/></g></g></g><g clip-path="url(#200776546a)"><path fill="#ff6854" d="M 17.964844 1.175781 C 17.964844 0.578125 17.484375 0.0976562 16.886719 0.0976562 C 16.292969 0.0976562 15.808594 0.578125 15.808594 1.175781 L 15.808594 4.769531 C 15.808594 5.363281 16.292969 5.84375 16.886719 5.84375 C 17.484375 5.84375 17.964844 5.363281 17.964844 4.769531 Z M 17.964844 1.175781 " fill-opacity="1" fill-rule="nonzero"/></g><path fill="#ff6854" d="M 26.230469 28.84375 L 26.230469 18.0625 C 26.230469 12.902344 22.046875 8.71875 16.886719 8.71875 C 11.726562 8.71875 7.546875 12.902344 7.546875 18.0625 L 7.546875 28.84375 Z M 24.074219 18.0625 L 24.074219 26.6875 L 9.703125 26.6875 L 9.703125 18.0625 C 9.703125 14.09375 12.917969 10.875 16.886719 10.875 C 20.855469 10.875 24.074219 14.09375 24.074219 18.0625 Z M 24.074219 18.0625 " fill-opacity="1" fill-rule="evenodd"/><path fill="#ff6854" d="M 28.027344 12.671875 C 28.027344 12.078125 28.507812 11.59375 29.105469 11.59375 L 32.699219 11.59375 C 33.292969 11.59375 33.777344 12.078125 33.777344 12.671875 C 33.777344 13.269531 33.292969 13.75 32.699219 13.75 L 29.105469 13.75 C 28.507812 13.75 28.027344 13.269531 28.027344 12.671875 Z M 28.027344 12.671875 " fill-opacity="1" fill-rule="nonzero"/><path fill="#ff6854" d="M 1.078125 11.953125 C 0.484375 11.953125 0 12.4375 0 13.03125 C 0 13.628906 0.484375 14.109375 1.078125 14.109375 L 4.671875 14.109375 C 5.265625 14.109375 5.75 13.628906 5.75 13.03125 C 5.75 12.4375 5.265625 11.953125 4.671875 11.953125 Z M 1.078125 11.953125 " fill-opacity="1" fill-rule="nonzero"/><path fill="#ff6854" d="M 5.511719 3.8125 C 5.933594 3.390625 6.617188 3.390625 7.039062 3.8125 L 9.578125 6.355469 C 10 6.773438 10 7.457031 9.578125 7.878906 C 9.15625 8.300781 8.476562 8.300781 8.054688 7.878906 L 5.511719 5.335938 C 5.09375 4.917969 5.09375 4.234375 5.511719 3.8125 Z M 5.511719 3.8125 " fill-opacity="1" fill-rule="nonzero"/><path fill="#ff6854" d="M 26.378906 3.8125 C 26.800781 3.390625 27.484375 3.390625 27.902344 3.8125 C 28.324219 4.234375 28.324219 4.917969 27.902344 5.335938 L 25.363281 7.878906 C 24.941406 8.300781 24.257812 8.300781 23.839844 7.878906 C 23.417969 7.457031 23.417969 6.773438 23.839844 6.355469 Z M 26.378906 3.8125 " fill-opacity="1" fill-rule="nonzero"/><g clip-path="url(#0835bc0551)"><path fill="#ffffff" d="M 26.230469 21.296875 L 26.230469 26.796875 C 28.894531 27.328125 30.902344 29.679688 30.902344 32.5 C 30.902344 33.257812 30.285156 33.871094 29.527344 33.871094 L 4.25 33.871094 C 3.488281 33.871094 2.875 33.257812 2.875 32.5 C 2.875 29.679688 4.882812 27.328125 7.546875 26.796875 L 7.546875 21.296875 Z M 9.703125 26.6875 L 24.074219 26.6875 L 24.074219 23.453125 L 9.703125 23.453125 Z M 8.6875 28.84375 C 6.9375 28.84375 5.472656 30.074219 5.113281 31.714844 L 28.660156 31.714844 C 28.304688 30.074219 26.839844 28.84375 25.089844 28.84375 Z M 8.6875 28.84375 " fill-opacity="1" fill-rule="evenodd"/></g></svg>